{
	"asset":{
		"generator":"Khronos glTF Blender I/O v4.3.47",
		"version":"2.0"
	},
	"scene":0,
	"scenes":[
		{
			"name":"Scene",
			"nodes":[
				5
			]
		}
	],
	"nodes":[
		{
			"mesh":0,
			"name":"defaultMaterial",
			"translation":[
				-4.496494293212891,
				-0.6844882965087891,
				11.01659870147705
			]
		},
		{
			"mesh":1,
			"name":"leftjoystick",
			"translation":[
				-4.496494293212891,
				-0.6844882965087891,
				11.01659870147705
			]
		},
		{
			"mesh":2,
			"name":"rightjoystick",
			"translation":[
				-4.496494293212891,
				-0.6844882965087891,
				11.01659870147705
			]
		},
		{
			"children":[
				0,
				1,
				2
			],
			"name":"Controller",
			"translation":[
				28.459562301635742,
				21.109975814819336,
				-0.33675798773765564
			]
		},
		{
			"children":[
				3
			],
			"name":"Collada visual scene group",
			"rotation":[
				0.70710688829422,
				0,
				0,
				0.7071066498756409
			]
		},
		{
			"children":[
				4
			],
			"name":"Sketchfab_model",
			"rotation":[
				-0.70710688829422,
				0,
				0,
				0.7071066498756409
			]
		}
	],
	"materials":[
		{
			"doubleSided":true,
			"emissiveFactor":[
				1,
				1,
				1
			],
			"emissiveTexture":{
				"index":0
			},
			"name":"DefaultMaterial",
			"normalTexture":{
				"index":1
			},
			"occlusionTexture":{
				"index":2
			},
			"pbrMetallicRoughness":{
				"baseColorTexture":{
					"index":3
				},
				"metallicRoughnessTexture":{
					"index":2
				}
			}
		}
	],
	"meshes":[
		{
			"name":"defaultMaterial",
			"primitives":[
				{
					"attributes":{
						"POSITION":0,
						"NORMAL":1,
						"TEXCOORD_0":2
					},
					"indices":3,
					"material":0
				}
			]
		},
		{
			"name":"defaultMaterial.001",
			"primitives":[
				{
					"attributes":{
						"POSITION":4,
						"NORMAL":5,
						"TEXCOORD_0":6
					},
					"indices":7,
					"material":0
				}
			]
		},
		{
			"name":"defaultMaterial.002",
			"primitives":[
				{
					"attributes":{
						"POSITION":8,
						"NORMAL":9,
						"TEXCOORD_0":10
					},
					"indices":11,
					"material":0
				}
			]
		}
	],
	"textures":[
		{
			"sampler":0,
			"source":0
		},
		{
			"sampler":0,
			"source":1
		},
		{
			"sampler":0,
			"source":2
		},
		{
			"sampler":0,
			"source":3
		}
	],
	"images":[
		{
			"mimeType":"image/jpeg",
			"name":"DefaultMaterial_emissive",
			"uri":"DefaultMaterial_emissive.jpg"
		},
		{
			"mimeType":"image/png",
			"name":"DefaultMaterial_normal",
			"uri":"DefaultMaterial_normal.png"
		},
		{
			"mimeType":"image/png",
			"name":"DefaultMaterial_metallicRoughness",
			"uri":"DefaultMaterial_metallicRoughness.png"
		},
		{
			"mimeType":"image/jpeg",
			"name":"DefaultMaterial_baseColor",
			"uri":"DefaultMaterial_baseColor.jpg"
		}
	],
	"accessors":[
		{
			"bufferView":0,
			"componentType":5126,
			"count":30211,
			"max":[
				59.00122833251953,
				95.78421020507812,
				205.85923767089844
			],
			"min":[
				-105.66106414794922,
				-174.899658203125,
				-205.1857147216797
			],
			"type":"VEC3"
		},
		{
			"bufferView":1,
			"componentType":5126,
			"count":30211,
			"type":"VEC3"
		},
		{
			"bufferView":2,
			"componentType":5126,
			"count":30211,
			"type":"VEC2"
		},
		{
			"bufferView":3,
			"componentType":5123,
			"count":157101,
			"type":"SCALAR"
		},
		{
			"bufferView":4,
			"componentType":5126,
			"count":823,
			"max":[
				60.29285430908203,
				-24.553794860839844,
				90.620361328125
			],
			"min":[
				29.2436466217041,
				-70.86592102050781,
				42.60760498046875
			],
			"type":"VEC3"
		},
		{
			"bufferView":5,
			"componentType":5126,
			"count":823,
			"type":"VEC3"
		},
		{
			"bufferView":6,
			"componentType":5126,
			"count":823,
			"type":"VEC2"
		},
		{
			"bufferView":7,
			"componentType":5123,
			"count":4608,
			"type":"SCALAR"
		},
		{
			"bufferView":8,
			"componentType":5126,
			"count":823,
			"max":[
				60.29285430908203,
				-24.553794860839844,
				-41.93408966064453
			],
			"min":[
				29.2436466217041,
				-70.86592102050781,
				-89.94685363769531
			],
			"type":"VEC3"
		},
		{
			"bufferView":9,
			"componentType":5126,
			"count":823,
			"type":"VEC3"
		},
		{
			"bufferView":10,
			"componentType":5126,
			"count":823,
			"type":"VEC2"
		},
		{
			"bufferView":11,
			"componentType":5123,
			"count":4608,
			"type":"SCALAR"
		}
	],
	"bufferViews":[
		{
			"buffer":0,
			"byteLength":362532,
			"byteOffset":0,
			"target":34962
		},
		{
			"buffer":0,
			"byteLength":362532,
			"byteOffset":362532,
			"target":34962
		},
		{
			"buffer":0,
			"byteLength":241688,
			"byteOffset":725064,
			"target":34962
		},
		{
			"buffer":0,
			"byteLength":314202,
			"byteOffset":966752,
			"target":34963
		},
		{
			"buffer":0,
			"byteLength":9876,
			"byteOffset":1280956,
			"target":34962
		},
		{
			"buffer":0,
			"byteLength":9876,
			"byteOffset":1290832,
			"target":34962
		},
		{
			"buffer":0,
			"byteLength":6584,
			"byteOffset":1300708,
			"target":34962
		},
		{
			"buffer":0,
			"byteLength":9216,
			"byteOffset":1307292,
			"target":34963
		},
		{
			"buffer":0,
			"byteLength":9876,
			"byteOffset":1316508,
			"target":34962
		},
		{
			"buffer":0,
			"byteLength":9876,
			"byteOffset":1326384,
			"target":34962
		},
		{
			"buffer":0,
			"byteLength":6584,
			"byteOffset":1336260,
			"target":34962
		},
		{
			"buffer":0,
			"byteLength":9216,
			"byteOffset":1342844,
			"target":34963
		}
	],
	"samplers":[
		{
			"magFilter":9729,
			"minFilter":9987
		}
	],
	"buffers":[
		{
			"byteLength":1352060,
			"uri":"controller.bin"
		}
	]
}
