{
	"asset":{
		"generator":"Khronos glTF Blender I/O v4.3.47",
		"version":"2.0"
	},
	"scene":0,
	"scenes":[
		{
			"name":"Scene",
			"nodes":[
				21
			]
		}
	],
	"nodes":[
		{
			"mesh":0,
			"name":"circlebutton",
			"translation":[
				-4.496494293212891,
				-0.6844902038574219,
				11.01659870147705
			]
		},
		{
			"mesh":1,
			"name":"crossbutton",
			"translation":[
				-4.496494293212891,
				-0.6844902038574219,
				11.01659870147705
			]
		},
		{
			"mesh":2,
			"name":"defaultMaterial",
			"translation":[
				-4.496494293212891,
				-0.6844902038574219,
				11.01659870147705
			]
		},
		{
			"mesh":3,
			"name":"downarrowbutton",
			"translation":[
				-4.496494293212891,
				-0.6844902038574219,
				11.01659870147705
			]
		},
		{
			"mesh":4,
			"name":"frontdesignpart",
			"translation":[
				-4.496494293212891,
				-0.6844902038574219,
				11.01659870147705
			]
		},
		{
			"mesh":5,
			"name":"leftarrowbutton",
			"translation":[
				-4.496494293212891,
				-0.6844902038574219,
				11.01659870147705
			]
		},
		{
			"mesh":6,
			"name":"leftfrontbutton",
			"translation":[
				-4.496494293212891,
				-0.6844902038574219,
				11.01659870147705
			]
		},
		{
			"mesh":7,
			"name":"leftjoystick",
			"translation":[
				-4.496494293212891,
				-0.6844902038574219,
				11.01659870147705
			]
		},
		{
			"mesh":8,
			"name":"leftjoystickcircle",
			"translation":[
				-4.496494293212891,
				-0.6844902038574219,
				11.01659870147705
			]
		},
		{
			"mesh":9,
			"name":"lefttopbutton",
			"translation":[
				-4.496494293212891,
				-0.6844902038574219,
				11.01659870147705
			]
		},
		{
			"mesh":10,
			"name":"rightarrowbutton",
			"translation":[
				-4.496494293212891,
				-0.6844902038574219,
				11.01659870147705
			]
		},
		{
			"mesh":11,
			"name":"rightfrontbutton",
			"translation":[
				-4.496494293212891,
				-0.6844902038574219,
				11.01659870147705
			]
		},
		{
			"mesh":12,
			"name":"rightjoystick",
			"translation":[
				-4.496494293212891,
				-0.6844902038574219,
				11.01659870147705
			]
		},
		{
			"mesh":13,
			"name":"rightjoystickcircle",
			"translation":[
				-4.496494293212891,
				-0.6844902038574219,
				11.01659870147705
			]
		},
		{
			"mesh":14,
			"name":"righttopbutton",
			"translation":[
				-4.496494293212891,
				-0.6844902038574219,
				11.01659870147705
			]
		},
		{
			"mesh":15,
			"name":"squarebutton",
			"translation":[
				-4.496494293212891,
				-0.6844902038574219,
				11.01659870147705
			]
		},
		{
			"mesh":16,
			"name":"topdesignpart",
			"translation":[
				-4.496494293212891,
				-0.6844902038574219,
				11.01659870147705
			]
		},
		{
			"mesh":17,
			"name":"trianglebutton",
			"translation":[
				-4.496494293212891,
				-0.6844902038574219,
				11.01659870147705
			]
		},
		{
			"mesh":18,
			"name":"uparrowbutton",
			"translation":[
				-4.496494293212891,
				-0.6844902038574219,
				11.01659870147705
			]
		},
		{
			"children":[
				0,
				1,
				2,
				3,
				4,
				5,
				6,
				7,
				8,
				9,
				10,
				11,
				12,
				13,
				14,
				15,
				16,
				17,
				18
			],
			"name":"Controller",
			"translation":[
				28.459562301635742,
				21.109975814819336,
				-0.33675798773765564
			]
		},
		{
			"children":[
				19
			],
			"name":"Collada visual scene group",
			"rotation":[
				0.70710688829422,
				0,
				0,
				0.7071066498756409
			]
		},
		{
			"children":[
				20
			],
			"name":"Sketchfab_model",
			"rotation":[
				-0.70710688829422,
				0,
				0,
				0.7071066498756409
			]
		}
	],
	"materials":[
		{
			"doubleSided":true,
			"emissiveFactor":[
				1,
				1,
				1
			],
			"emissiveTexture":{
				"index":0
			},
			"name":"DefaultMaterial",
			"normalTexture":{
				"index":1
			},
			"occlusionTexture":{
				"index":2
			},
			"pbrMetallicRoughness":{
				"baseColorTexture":{
					"index":3
				},
				"metallicRoughnessTexture":{
					"index":2
				}
			}
		}
	],
	"meshes":[
		{
			"name":"defaultMaterial.021",
			"primitives":[
				{
					"attributes":{
						"POSITION":0,
						"NORMAL":1,
						"TEXCOORD_0":2
					},
					"indices":3,
					"material":0
				}
			]
		},
		{
			"name":"defaultMaterial.014",
			"primitives":[
				{
					"attributes":{
						"POSITION":4,
						"NORMAL":5,
						"TEXCOORD_0":6
					},
					"indices":7,
					"material":0
				}
			]
		},
		{
			"name":"defaultMaterial",
			"primitives":[
				{
					"attributes":{
						"POSITION":8,
						"NORMAL":9,
						"TEXCOORD_0":10
					},
					"indices":11,
					"material":0
				}
			]
		},
		{
			"name":"defaultMaterial.007",
			"primitives":[
				{
					"attributes":{
						"POSITION":12,
						"NORMAL":13,
						"TEXCOORD_0":14
					},
					"indices":15,
					"material":0
				}
			]
		},
		{
			"name":"defaultMaterial.018",
			"primitives":[
				{
					"attributes":{
						"POSITION":16,
						"NORMAL":17,
						"TEXCOORD_0":18
					},
					"indices":19,
					"material":0
				}
			]
		},
		{
			"name":"defaultMaterial.008",
			"primitives":[
				{
					"attributes":{
						"POSITION":20,
						"NORMAL":21,
						"TEXCOORD_0":22
					},
					"indices":23,
					"material":0
				}
			]
		},
		{
			"name":"defaultMaterial.019",
			"primitives":[
				{
					"attributes":{
						"POSITION":24,
						"NORMAL":25,
						"TEXCOORD_0":26
					},
					"indices":27,
					"material":0
				}
			]
		},
		{
			"name":"defaultMaterial.001",
			"primitives":[
				{
					"attributes":{
						"POSITION":28,
						"NORMAL":29,
						"TEXCOORD_0":30
					},
					"indices":31,
					"material":0
				}
			]
		},
		{
			"name":"defaultMaterial.004",
			"primitives":[
				{
					"attributes":{
						"POSITION":32,
						"NORMAL":33,
						"TEXCOORD_0":34
					},
					"indices":35,
					"material":0
				}
			]
		},
		{
			"name":"defaultMaterial.016",
			"primitives":[
				{
					"attributes":{
						"POSITION":36,
						"NORMAL":37,
						"TEXCOORD_0":38
					},
					"indices":39,
					"material":0
				}
			]
		},
		{
			"name":"defaultMaterial.006",
			"primitives":[
				{
					"attributes":{
						"POSITION":40,
						"NORMAL":41,
						"TEXCOORD_0":42
					},
					"indices":43,
					"material":0
				}
			]
		},
		{
			"name":"defaultMaterial.020",
			"primitives":[
				{
					"attributes":{
						"POSITION":44,
						"NORMAL":45,
						"TEXCOORD_0":46
					},
					"indices":47,
					"material":0
				}
			]
		},
		{
			"name":"defaultMaterial.002",
			"primitives":[
				{
					"attributes":{
						"POSITION":48,
						"NORMAL":49,
						"TEXCOORD_0":50
					},
					"indices":51,
					"material":0
				}
			]
		},
		{
			"name":"defaultMaterial.003",
			"primitives":[
				{
					"attributes":{
						"POSITION":52,
						"NORMAL":53,
						"TEXCOORD_0":54
					},
					"indices":55,
					"material":0
				}
			]
		},
		{
			"name":"defaultMaterial.015",
			"primitives":[
				{
					"attributes":{
						"POSITION":56,
						"NORMAL":57,
						"TEXCOORD_0":58
					},
					"indices":59,
					"material":0
				}
			]
		},
		{
			"name":"defaultMaterial.013",
			"primitives":[
				{
					"attributes":{
						"POSITION":60,
						"NORMAL":61,
						"TEXCOORD_0":62
					},
					"indices":7,
					"material":0
				}
			]
		},
		{
			"name":"defaultMaterial.017",
			"primitives":[
				{
					"attributes":{
						"POSITION":63,
						"NORMAL":64,
						"TEXCOORD_0":65
					},
					"indices":66,
					"material":0
				}
			]
		},
		{
			"name":"defaultMaterial.009",
			"primitives":[
				{
					"attributes":{
						"POSITION":67,
						"NORMAL":68,
						"TEXCOORD_0":69
					},
					"indices":7,
					"material":0
				}
			]
		},
		{
			"name":"defaultMaterial.005",
			"primitives":[
				{
					"attributes":{
						"POSITION":70,
						"NORMAL":71,
						"TEXCOORD_0":72
					},
					"indices":73,
					"material":0
				}
			]
		}
	],
	"textures":[
		{
			"sampler":0,
			"source":0
		},
		{
			"sampler":0,
			"source":1
		},
		{
			"sampler":0,
			"source":2
		},
		{
			"sampler":0,
			"source":3
		}
	],
	"images":[
		{
			"mimeType":"image/jpeg",
			"name":"DefaultMaterial_emissive",
			"uri":"DefaultMaterial_emissive.jpg"
		},
		{
			"mimeType":"image/png",
			"name":"DefaultMaterial_normal",
			"uri":"DefaultMaterial_normal.png"
		},
		{
			"mimeType":"image/png",
			"name":"DefaultMaterial_metallicRoughness",
			"uri":"DefaultMaterial_metallicRoughness.png"
		},
		{
			"mimeType":"image/jpeg",
			"name":"DefaultMaterial_baseColor",
			"uri":"DefaultMaterial_baseColor.jpg"
		}
	],
	"accessors":[
		{
			"bufferView":0,
			"componentType":5126,
			"count":353,
			"max":[
				30.652070999145508,
				33.34565353393555,
				-132.23899841308594
			],
			"min":[
				30.379549026489258,
				8.874298095703125,
				-156.71035766601562
			],
			"type":"VEC3"
		},
		{
			"bufferView":1,
			"componentType":5126,
			"count":353,
			"type":"VEC3"
		},
		{
			"bufferView":2,
			"componentType":5126,
			"count":353,
			"type":"VEC2"
		},
		{
			"bufferView":3,
			"componentType":5123,
			"count":1920,
			"type":"SCALAR"
		},
		{
			"bufferView":4,
			"componentType":5126,
			"count":609,
			"max":[
				37.542724609375,
				9.276172637939453,
				-110.3084716796875
			],
			"min":[
				35.353843688964844,
				-13.056221008300781,
				-132.640869140625
			],
			"type":"VEC3"
		},
		{
			"bufferView":5,
			"componentType":5126,
			"count":609,
			"type":"VEC3"
		},
		{
			"bufferView":6,
			"componentType":5126,
			"count":609,
			"type":"VEC2"
		},
		{
			"bufferView":7,
			"componentType":5123,
			"count":3456,
			"type":"SCALAR"
		},
		{
			"bufferView":8,
			"componentType":5126,
			"count":23658,
			"max":[
				39.7589111328125,
				94.49946594238281,
				205.85923767089844
			],
			"min":[
				-105.66106414794922,
				-174.899658203125,
				-205.1857147216797
			],
			"type":"VEC3"
		},
		{
			"bufferView":9,
			"componentType":5126,
			"count":23658,
			"type":"VEC3"
		},
		{
			"bufferView":10,
			"componentType":5126,
			"count":23658,
			"type":"VEC2"
		},
		{
			"bufferView":11,
			"componentType":5123,
			"count":120645,
			"type":"SCALAR"
		},
		{
			"bufferView":12,
			"componentType":5126,
			"count":243,
			"max":[
				37.382484436035156,
				13.327568054199219,
				129.5095977783203
			],
			"min":[
				36.94225311279297,
				-11.126928329467773,
				113.43975067138672
			],
			"type":"VEC3"
		},
		{
			"bufferView":13,
			"componentType":5126,
			"count":243,
			"type":"VEC3"
		},
		{
			"bufferView":14,
			"componentType":5126,
			"count":243,
			"type":"VEC2"
		},
		{
			"bufferView":15,
			"componentType":5123,
			"count":1248,
			"type":"SCALAR"
		},
		{
			"bufferView":16,
			"componentType":5126,
			"count":1272,
			"max":[
				33.351966857910156,
				77.08331298828125,
				62.380401611328125
			],
			"min":[
				-10.830113410949707,
				6.862761974334717,
				-61.70689392089844
			],
			"type":"VEC3"
		},
		{
			"bufferView":17,
			"componentType":5126,
			"count":1272,
			"type":"VEC3"
		},
		{
			"bufferView":18,
			"componentType":5126,
			"count":1272,
			"type":"VEC2"
		},
		{
			"bufferView":19,
			"componentType":5123,
			"count":7104,
			"type":"SCALAR"
		},
		{
			"bufferView":20,
			"componentType":5126,
			"count":291,
			"max":[
				37.382484436035156,
				29.462139129638672,
				153.79714965820312
			],
			"min":[
				36.609657287597656,
				12.757816314697266,
				129.23822021484375
			],
			"type":"VEC3"
		},
		{
			"bufferView":21,
			"componentType":5126,
			"count":291,
			"type":"VEC3"
		},
		{
			"bufferView":22,
			"componentType":5126,
			"count":291,
			"type":"VEC2"
		},
		{
			"bufferView":23,
			"componentType":5123,
			"count":1536,
			"type":"SCALAR"
		},
		{
			"bufferView":24,
			"componentType":5126,
			"count":125,
			"max":[
				33.342018127441406,
				69.25886535644531,
				95.49490356445312
			],
			"min":[
				28.290945053100586,
				48.7021598815918,
				79.22407531738281
			],
			"type":"VEC3"
		},
		{
			"bufferView":25,
			"componentType":5126,
			"count":125,
			"type":"VEC3"
		},
		{
			"bufferView":26,
			"componentType":5126,
			"count":125,
			"type":"VEC2"
		},
		{
			"bufferView":27,
			"componentType":5123,
			"count":255,
			"type":"SCALAR"
		},
		{
			"bufferView":28,
			"componentType":5126,
			"count":823,
			"max":[
				60.29285430908203,
				-24.553794860839844,
				90.620361328125
			],
			"min":[
				29.2436466217041,
				-70.86592102050781,
				42.60760498046875
			],
			"type":"VEC3"
		},
		{
			"bufferView":29,
			"componentType":5126,
			"count":823,
			"type":"VEC3"
		},
		{
			"bufferView":30,
			"componentType":5126,
			"count":823,
			"type":"VEC2"
		},
		{
			"bufferView":31,
			"componentType":5123,
			"count":4608,
			"type":"SCALAR"
		},
		{
			"bufferView":32,
			"componentType":5126,
			"count":117,
			"max":[
				59.00122833251953,
				-32.404117584228516,
				82.88932800292969
			],
			"min":[
				55.79254913330078,
				-63.33469772338867,
				51.84394836425781
			],
			"type":"VEC3"
		},
		{
			"bufferView":33,
			"componentType":5126,
			"count":117,
			"type":"VEC3"
		},
		{
			"bufferView":34,
			"componentType":5126,
			"count":117,
			"type":"VEC2"
		},
		{
			"bufferView":35,
			"componentType":5123,
			"count":624,
			"type":"SCALAR"
		},
		{
			"bufferView":36,
			"componentType":5126,
			"count":117,
			"max":[
				-19.2205810546875,
				95.78421020507812,
				147.58511352539062
			],
			"min":[
				-54.75141906738281,
				94.49946594238281,
				111.19967651367188
			],
			"type":"VEC3"
		},
		{
			"bufferView":37,
			"componentType":5126,
			"count":117,
			"type":"VEC3"
		},
		{
			"bufferView":38,
			"componentType":5126,
			"count":117,
			"type":"VEC2"
		},
		{
			"bufferView":39,
			"componentType":5123,
			"count":624,
			"type":"SCALAR"
		},
		{
			"bufferView":40,
			"componentType":5126,
			"count":245,
			"max":[
				37.382484436035156,
				29.144901275634766,
				113.69227600097656
			],
			"min":[
				36.94225311279297,
				13.07504653930664,
				89.23777770996094
			],
			"type":"VEC3"
		},
		{
			"bufferView":41,
			"componentType":5126,
			"count":245,
			"type":"VEC3"
		},
		{
			"bufferView":42,
			"componentType":5126,
			"count":245,
			"type":"VEC2"
		},
		{
			"bufferView":43,
			"componentType":5123,
			"count":1248,
			"type":"SCALAR"
		},
		{
			"bufferView":44,
			"componentType":5126,
			"count":121,
			"max":[
				33.342018127441406,
				69.25886535644531,
				-77.53070831298828
			],
			"min":[
				28.290945053100586,
				49.012569427490234,
				-95.16062927246094
			],
			"type":"VEC3"
		},
		{
			"bufferView":45,
			"componentType":5126,
			"count":121,
			"type":"VEC3"
		},
		{
			"bufferView":46,
			"componentType":5126,
			"count":121,
			"type":"VEC2"
		},
		{
			"bufferView":47,
			"componentType":5123,
			"count":249,
			"type":"SCALAR"
		},
		{
			"bufferView":48,
			"componentType":5126,
			"count":823,
			"max":[
				60.29285430908203,
				-24.553794860839844,
				-41.93408966064453
			],
			"min":[
				29.2436466217041,
				-70.86592102050781,
				-89.94685363769531
			],
			"type":"VEC3"
		},
		{
			"bufferView":49,
			"componentType":5126,
			"count":823,
			"type":"VEC3"
		},
		{
			"bufferView":50,
			"componentType":5126,
			"count":823,
			"type":"VEC2"
		},
		{
			"bufferView":51,
			"componentType":5123,
			"count":4608,
			"type":"SCALAR"
		},
		{
			"bufferView":52,
			"componentType":5126,
			"count":117,
			"max":[
				59.00122833251953,
				-32.404117584228516,
				-51.170433044433594
			],
			"min":[
				55.792572021484375,
				-63.33469772338867,
				-82.2158203125
			],
			"type":"VEC3"
		},
		{
			"bufferView":53,
			"componentType":5126,
			"count":117,
			"type":"VEC3"
		},
		{
			"bufferView":54,
			"componentType":5126,
			"count":117,
			"type":"VEC2"
		},
		{
			"bufferView":55,
			"componentType":5123,
			"count":624,
			"type":"SCALAR"
		},
		{
			"bufferView":56,
			"componentType":5126,
			"count":117,
			"max":[
				-19.2205810546875,
				95.78421020507812,
				-110.52616882324219
			],
			"min":[
				-54.75141906738281,
				94.49946594238281,
				-146.91159057617188
			],
			"type":"VEC3"
		},
		{
			"bufferView":57,
			"componentType":5126,
			"count":117,
			"type":"VEC3"
		},
		{
			"bufferView":58,
			"componentType":5126,
			"count":117,
			"type":"VEC2"
		},
		{
			"bufferView":59,
			"componentType":5123,
			"count":624,
			"type":"SCALAR"
		},
		{
			"bufferView":60,
			"componentType":5126,
			"count":609,
			"max":[
				37.542724609375,
				32.27617263793945,
				-87.3084716796875
			],
			"min":[
				35.353843688964844,
				9.943775177001953,
				-109.64087677001953
			],
			"type":"VEC3"
		},
		{
			"bufferView":61,
			"componentType":5126,
			"count":609,
			"type":"VEC3"
		},
		{
			"bufferView":62,
			"componentType":5126,
			"count":609,
			"type":"VEC2"
		},
		{
			"bufferView":63,
			"componentType":5126,
			"count":637,
			"max":[
				-20.246444702148438,
				77.39064025878906,
				57.565086364746094
			],
			"min":[
				-40.12639617919922,
				74.85566711425781,
				-56.891571044921875
			],
			"type":"VEC3"
		},
		{
			"bufferView":64,
			"componentType":5126,
			"count":637,
			"type":"VEC3"
		},
		{
			"bufferView":65,
			"componentType":5126,
			"count":637,
			"type":"VEC2"
		},
		{
			"bufferView":66,
			"componentType":5123,
			"count":3408,
			"type":"SCALAR"
		},
		{
			"bufferView":67,
			"componentType":5126,
			"count":609,
			"max":[
				37.542724609375,
				55.27617263793945,
				-110.3084716796875
			],
			"min":[
				35.353843688964844,
				32.94377517700195,
				-132.640869140625
			],
			"type":"VEC3"
		},
		{
			"bufferView":68,
			"componentType":5126,
			"count":609,
			"type":"VEC3"
		},
		{
			"bufferView":69,
			"componentType":5126,
			"count":609,
			"type":"VEC2"
		},
		{
			"bufferView":70,
			"componentType":5126,
			"count":244,
			"max":[
				37.382484436035156,
				53.34687423706055,
				129.5095977783203
			],
			"min":[
				36.94225311279297,
				28.892375946044922,
				113.43975067138672
			],
			"type":"VEC3"
		},
		{
			"bufferView":71,
			"componentType":5126,
			"count":244,
			"type":"VEC3"
		},
		{
			"bufferView":72,
			"componentType":5126,
			"count":244,
			"type":"VEC2"
		},
		{
			"bufferView":73,
			"componentType":5123,
			"count":1248,
			"type":"SCALAR"
		}
	],
	"bufferViews":[
		{
			"buffer":0,
			"byteLength":4236,
			"byteOffset":0,
			"target":34962
		},
		{
			"buffer":0,
			"byteLength":4236,
			"byteOffset":4236,
			"target":34962
		},
		{
			"buffer":0,
			"byteLength":2824,
			"byteOffset":8472,
			"target":34962
		},
		{
			"buffer":0,
			"byteLength":3840,
			"byteOffset":11296,
			"target":34963
		},
		{
			"buffer":0,
			"byteLength":7308,
			"byteOffset":15136,
			"target":34962
		},
		{
			"buffer":0,
			"byteLength":7308,
			"byteOffset":22444,
			"target":34962
		},
		{
			"buffer":0,
			"byteLength":4872,
			"byteOffset":29752,
			"target":34962
		},
		{
			"buffer":0,
			"byteLength":6912,
			"byteOffset":34624,
			"target":34963
		},
		{
			"buffer":0,
			"byteLength":283896,
			"byteOffset":41536,
			"target":34962
		},
		{
			"buffer":0,
			"byteLength":283896,
			"byteOffset":325432,
			"target":34962
		},
		{
			"buffer":0,
			"byteLength":189264,
			"byteOffset":609328,
			"target":34962
		},
		{
			"buffer":0,
			"byteLength":241290,
			"byteOffset":798592,
			"target":34963
		},
		{
			"buffer":0,
			"byteLength":2916,
			"byteOffset":1039884,
			"target":34962
		},
		{
			"buffer":0,
			"byteLength":2916,
			"byteOffset":1042800,
			"target":34962
		},
		{
			"buffer":0,
			"byteLength":1944,
			"byteOffset":1045716,
			"target":34962
		},
		{
			"buffer":0,
			"byteLength":2496,
			"byteOffset":1047660,
			"target":34963
		},
		{
			"buffer":0,
			"byteLength":15264,
			"byteOffset":1050156,
			"target":34962
		},
		{
			"buffer":0,
			"byteLength":15264,
			"byteOffset":1065420,
			"target":34962
		},
		{
			"buffer":0,
			"byteLength":10176,
			"byteOffset":1080684,
			"target":34962
		},
		{
			"buffer":0,
			"byteLength":14208,
			"byteOffset":1090860,
			"target":34963
		},
		{
			"buffer":0,
			"byteLength":3492,
			"byteOffset":1105068,
			"target":34962
		},
		{
			"buffer":0,
			"byteLength":3492,
			"byteOffset":1108560,
			"target":34962
		},
		{
			"buffer":0,
			"byteLength":2328,
			"byteOffset":1112052,
			"target":34962
		},
		{
			"buffer":0,
			"byteLength":3072,
			"byteOffset":1114380,
			"target":34963
		},
		{
			"buffer":0,
			"byteLength":1500,
			"byteOffset":1117452,
			"target":34962
		},
		{
			"buffer":0,
			"byteLength":1500,
			"byteOffset":1118952,
			"target":34962
		},
		{
			"buffer":0,
			"byteLength":1000,
			"byteOffset":1120452,
			"target":34962
		},
		{
			"buffer":0,
			"byteLength":510,
			"byteOffset":1121452,
			"target":34963
		},
		{
			"buffer":0,
			"byteLength":9876,
			"byteOffset":1121964,
			"target":34962
		},
		{
			"buffer":0,
			"byteLength":9876,
			"byteOffset":1131840,
			"target":34962
		},
		{
			"buffer":0,
			"byteLength":6584,
			"byteOffset":1141716,
			"target":34962
		},
		{
			"buffer":0,
			"byteLength":9216,
			"byteOffset":1148300,
			"target":34963
		},
		{
			"buffer":0,
			"byteLength":1404,
			"byteOffset":1157516,
			"target":34962
		},
		{
			"buffer":0,
			"byteLength":1404,
			"byteOffset":1158920,
			"target":34962
		},
		{
			"buffer":0,
			"byteLength":936,
			"byteOffset":1160324,
			"target":34962
		},
		{
			"buffer":0,
			"byteLength":1248,
			"byteOffset":1161260,
			"target":34963
		},
		{
			"buffer":0,
			"byteLength":1404,
			"byteOffset":1162508,
			"target":34962
		},
		{
			"buffer":0,
			"byteLength":1404,
			"byteOffset":1163912,
			"target":34962
		},
		{
			"buffer":0,
			"byteLength":936,
			"byteOffset":1165316,
			"target":34962
		},
		{
			"buffer":0,
			"byteLength":1248,
			"byteOffset":1166252,
			"target":34963
		},
		{
			"buffer":0,
			"byteLength":2940,
			"byteOffset":1167500,
			"target":34962
		},
		{
			"buffer":0,
			"byteLength":2940,
			"byteOffset":1170440,
			"target":34962
		},
		{
			"buffer":0,
			"byteLength":1960,
			"byteOffset":1173380,
			"target":34962
		},
		{
			"buffer":0,
			"byteLength":2496,
			"byteOffset":1175340,
			"target":34963
		},
		{
			"buffer":0,
			"byteLength":1452,
			"byteOffset":1177836,
			"target":34962
		},
		{
			"buffer":0,
			"byteLength":1452,
			"byteOffset":1179288,
			"target":34962
		},
		{
			"buffer":0,
			"byteLength":968,
			"byteOffset":1180740,
			"target":34962
		},
		{
			"buffer":0,
			"byteLength":498,
			"byteOffset":1181708,
			"target":34963
		},
		{
			"buffer":0,
			"byteLength":9876,
			"byteOffset":1182208,
			"target":34962
		},
		{
			"buffer":0,
			"byteLength":9876,
			"byteOffset":1192084,
			"target":34962
		},
		{
			"buffer":0,
			"byteLength":6584,
			"byteOffset":1201960,
			"target":34962
		},
		{
			"buffer":0,
			"byteLength":9216,
			"byteOffset":1208544,
			"target":34963
		},
		{
			"buffer":0,
			"byteLength":1404,
			"byteOffset":1217760,
			"target":34962
		},
		{
			"buffer":0,
			"byteLength":1404,
			"byteOffset":1219164,
			"target":34962
		},
		{
			"buffer":0,
			"byteLength":936,
			"byteOffset":1220568,
			"target":34962
		},
		{
			"buffer":0,
			"byteLength":1248,
			"byteOffset":1221504,
			"target":34963
		},
		{
			"buffer":0,
			"byteLength":1404,
			"byteOffset":1222752,
			"target":34962
		},
		{
			"buffer":0,
			"byteLength":1404,
			"byteOffset":1224156,
			"target":34962
		},
		{
			"buffer":0,
			"byteLength":936,
			"byteOffset":1225560,
			"target":34962
		},
		{
			"buffer":0,
			"byteLength":1248,
			"byteOffset":1226496,
			"target":34963
		},
		{
			"buffer":0,
			"byteLength":7308,
			"byteOffset":1227744,
			"target":34962
		},
		{
			"buffer":0,
			"byteLength":7308,
			"byteOffset":1235052,
			"target":34962
		},
		{
			"buffer":0,
			"byteLength":4872,
			"byteOffset":1242360,
			"target":34962
		},
		{
			"buffer":0,
			"byteLength":7644,
			"byteOffset":1247232,
			"target":34962
		},
		{
			"buffer":0,
			"byteLength":7644,
			"byteOffset":1254876,
			"target":34962
		},
		{
			"buffer":0,
			"byteLength":5096,
			"byteOffset":1262520,
			"target":34962
		},
		{
			"buffer":0,
			"byteLength":6816,
			"byteOffset":1267616,
			"target":34963
		},
		{
			"buffer":0,
			"byteLength":7308,
			"byteOffset":1274432,
			"target":34962
		},
		{
			"buffer":0,
			"byteLength":7308,
			"byteOffset":1281740,
			"target":34962
		},
		{
			"buffer":0,
			"byteLength":4872,
			"byteOffset":1289048,
			"target":34962
		},
		{
			"buffer":0,
			"byteLength":2928,
			"byteOffset":1293920,
			"target":34962
		},
		{
			"buffer":0,
			"byteLength":2928,
			"byteOffset":1296848,
			"target":34962
		},
		{
			"buffer":0,
			"byteLength":1952,
			"byteOffset":1299776,
			"target":34962
		},
		{
			"buffer":0,
			"byteLength":2496,
			"byteOffset":1301728,
			"target":34963
		}
	],
	"samplers":[
		{
			"magFilter":9729,
			"minFilter":9987
		}
	],
	"buffers":[
		{
			"byteLength":1304224,
			"uri":"controller.bin"
		}
	]
}
